<svg xmlns="http://www.w3.org/2000/svg" aria-hidden="true" style="position:absolute;width:0;height:0;overflow:hidden">
  <defs>
    <symbol id="icon-circle" viewBox="0 0 32 32">
      <path fill="#3461ff" d="M32 16c0 8.837-7.163 16-16 16S0 24.837 0 16 7.163 0 16 0s16 7.163 16 16z" style="fill:var(--color1, #3461ff)"/>
    </symbol>
    <symbol id="icon-triangle" viewBox="0 0 27 32">
      <path fill="#3461ff" d="M25.172 14.684a1.524 1.524 0 0 1 0 2.633L2.291 30.664a1.524 1.524 0 0 1-2.292-1.316V2.654a1.524 1.524 0 0 1 2.292-1.316l22.881 13.347z" style="fill:var(--color1, #3461ff)"/>
    </symbol>
      <symbol id="icon-adobe" viewBox="0 0 89 32">
      <path fill="#fa0c00" d="M10.257 4H.5v23.333L10.257 4zm6.864 0h9.744v23.333L17.121 4zm-3.432 8.6 6.21 14.733h-4.074l-1.856-4.691H9.424l4.265-10.043zm29.093 6.239 1.15 3.299c.038.083.095.121.197.121h2.212c.121 0 .14-.057.121-.178l-4.57-12.693c-.019-.102-.038-.121-.14-.121h-2.746c-.076 0-.121.057-.121.14-.038.667-.095.871-.178 1.068l-4.074 11.587c-.019.14.025.197.14.197h1.977c.121 0 .178-.038.222-.159l1.087-3.261h4.723zm-4.093-2.155c.597-1.805 1.386-4.119 1.703-5.441h.019c.394 1.386 1.322 4.131 1.742 5.441h-3.464zm13.649 5.771a9.37 9.37 0 0 0 3.737-.769c.102-.038.121-.083.121-.178a13.26 13.26 0 0 1-.083-1.265V8.293c0-.076 0-.114-.095-.114h-2.155c-.083 0-.121.038-.121.14v4.049a7.112 7.112 0 0 0-.852-.057c-3.477 0-5.612 2.295-5.612 5.161 0 3.324 2.193 4.983 5.059 4.983zm1.405-2.212c-.356.114-.75.159-1.15.159-1.576 0-2.867-.89-2.867-3.051 0-1.913 1.328-3.045 3.089-3.045.356 0 .667.038.928.14v5.797zm9.327-7.932c-2.968 0-4.805 2.275-4.805 5.085 0 2.511 1.462 5.06 4.761 5.06 2.79 0 4.748-2.053 4.748-5.123 0-2.708-1.659-5.021-4.703-5.021zm-.121 1.996c1.678 0 2.39 1.443 2.39 3.089 0 2.034-1.049 3.045-2.269 3.045-1.506 0-2.396-1.265-2.396-3.089 0-1.875.947-3.045 2.276-3.045zm7.052-6.128c-.083 0-.14.038-.14.14v13.526c0 .057.057.159.14.178.947.292 1.939.432 2.962.432 2.93 0 5.777-1.818 5.777-5.479 0-2.65-1.818-4.665-4.665-4.665a5.71 5.71 0 0 0-1.799.28l-.025-4.252c0-.14-.038-.159-.178-.159h-2.072zm6.306 9.039c0 2.193-1.5 3.223-3.121 3.223-.337 0-.635-.019-.909-.102v-5.771c.311-.121.687-.222 1.379-.222 1.563 0 2.651.992 2.651 2.873zm10.475.712c.966 0 1.761-.019 2.034-.083.102-.019.14-.057.159-.14.057-.216.083-.667.083-1.22 0-1.881-1.132-4.176-4.055-4.176-2.987 0-4.647 2.434-4.647 5.18 0 2.434 1.284 4.964 4.881 4.964 1.348 0 2.219-.216 2.969-.572.076-.038.115-.102.115-.216v-1.646c0-.095-.057-.114-.115-.076a6.203 6.203 0 0 1-2.453.477c-2.015 0-2.93-1.112-2.987-2.492h4.017zm-4.017-1.704c.159-.966.769-2.015 2.135-2.015 1.507 0 1.901 1.265 1.901 1.837v.159c-.083.019-.337.019-1.087.019h-2.949z" style="fill:var(--color1, #fa0c00)"/>
    </symbol>
    <symbol id="icon-asana" viewBox="0 0 85 32">
      <path fill="#0d0e10" d="M81.971 21.32c.051.58.514 1.318 1.318 1.318h.469a.332.332 0 0 0 .332-.332V11.969h-.002a.331.331 0 0 0-.33-.314h-1.456a.33.33 0 0 0-.329.314h-.002v.84c-.893-1.1-2.299-1.556-3.71-1.556-3.207 0-5.807 2.602-5.807 5.811s2.599 5.811 5.807 5.811c1.411 0 2.949-.548 3.71-1.556v.001zm-3.704-.479c-2.039 0-3.693-1.691-3.693-3.778s1.653-3.777 3.693-3.777 3.693 1.691 3.693 3.777-1.653 3.778-3.693 3.778zm-7.654-4.514c0-3.015-1.901-5.049-4.931-5.049-1.447 0-2.633.837-3.052 1.557-.091-.562-.389-1.154-1.314-1.154h-.472a.332.332 0 0 0-.331.332v10.338h.002c.01.174.154.314.33.314h1.456a.35.35 0 0 0 .065-.007l.028-.008.032-.01c.013-.005.025-.013.037-.019l.018-.01c.015-.009.028-.021.041-.032l.007-.006a.328.328 0 0 0 .101-.222h.002v-6.106c0-1.619 1.312-2.932 2.93-2.932s2.93 1.313 2.93 2.932l.001 5.104v-.002l.001.014v.99h.001c.01.174.154.314.33.314h1.457a.35.35 0 0 0 .065-.007l.025-.007c.012-.003.024-.006.035-.011l.034-.018.021-.011c.014-.009.026-.02.038-.03l.009-.008a.248.248 0 0 0 .037-.043l.003-.003a.333.333 0 0 0 .062-.174v-.001h.002l-.001-6.023zM55.445 21.32c.051.58.515 1.318 1.318 1.318h.47a.332.332 0 0 0 .331-.332V11.969h-.002a.332.332 0 0 0-.329-.314h-1.456a.332.332 0 0 0-.33.314h-.002v.84c-.892-1.1-2.299-1.556-3.71-1.556-3.207 0-5.806 2.602-5.806 5.811s2.6 5.811 5.806 5.811c1.411 0 2.948-.547 3.71-1.556v.001zm-3.704-.479c-2.039 0-3.693-1.691-3.693-3.777s1.653-3.777 3.693-3.777 3.693 1.691 3.693 3.777-1.653 3.777-3.693 3.777zM37.316 19.84c.972.674 2.034 1.001 3.053 1.001.972 0 1.976-.504 1.976-1.381 0-1.171-2.189-1.354-3.564-1.821s-2.56-1.435-2.56-3c0-2.396 2.133-3.386 4.124-3.386 1.261 0 2.563.416 3.407 1.013.291.22.114.473.114.473l-.806 1.151c-.091.13-.249.242-.476.101s-1.024-.705-2.239-.705c-1.215 0-1.947.561-1.947 1.257 0 .834.951 1.097 2.065 1.381 1.941.524 4.059 1.153 4.059 3.535 0 2.111-1.973 3.416-4.154 3.416-1.653 0-3.059-.471-4.239-1.338-.246-.246-.074-.475-.074-.475l.802-1.146c.163-.214.369-.139.459-.077zm-5.599 1.48c.051.58.515 1.318 1.318 1.318h.47a.333.333 0 0 0 .332-.332V11.969h-.002a.332.332 0 0 0-.329-.314H32.05a.332.332 0 0 0-.33.314h-.002v.84c-.892-1.1-2.299-1.556-3.71-1.556-3.207 0-5.807 2.602-5.807 5.811s2.6 5.811 5.807 5.811c1.411 0 2.948-.547 3.71-1.556v.001zm-3.705-.479c-2.04 0-3.693-1.691-3.693-3.777s1.653-3.777 3.693-3.777c2.039 0 3.693 1.691 3.693 3.777s-1.653 3.777-3.693 3.777z" style="fill:var(--color2, #0d0e10)"/>
      <path fill="#f06a6a" d="M14.06 17.459a3.908 3.908 0 1 0 0 7.816 3.908 3.908 0 0 0 0-7.816zm-10.152 0a3.908 3.908 0 1 0 0 7.815 3.908 3.908 0 0 0 0-7.815zm8.983-4.885a3.908 3.908 0 1 1-7.815 0 3.908 3.908 0 0 1 7.815 0z" style="fill:var(--color3, #f06a6a)"/>
    </symbol>
    <symbol id="icon-evernote" viewBox="0 0 109 32">
      <path d="m26.417 21.715.676-.139c.597-.159.756-.239.756-1.432v-9.369c0-1.194-.179-1.293-.756-1.432l-.676-.139v-.557h10.782l.199 3.959h-.617c-.497-1.094-.816-1.671-1.114-2.109-.637-.915-1.054-.995-2.427-.995-1.015 0-1.512.119-1.81.199v5.073h.537c1.392 0 1.711-.159 1.949-.597.278-.497.438-.875.617-1.512h.597v5.132h-.597a9.033 9.033 0 0 0-.617-1.591c-.239-.497-.497-.597-1.949-.597h-.537v3.819c0 1.77.06 1.969 1.989 1.969 1.591 0 1.91-.199 2.566-1.174.358-.537.736-1.373 1.253-2.626h.637l-.279 4.675h-11.16l-.02-.557zm13.129-7.46c-.458-1.114-.676-1.393-1.174-1.552l-.378-.119v-.517h5.908v.517l-.537.139c-.418.119-.617.318-.617.796 0 .279.099.617.259 1.054l1.651 4.535h.099l1.591-4.535c.179-.477.259-.816.259-1.094 0-.438-.199-.656-.617-.756l-.537-.139v-.517h3.64v.517l-.378.119c-.517.179-.736.477-1.213 1.77l-3.044 7.798h-1.671l-3.242-8.017zm9.091 2.865c0-3.421 2.526-5.311 5.132-5.311 2.705 0 4.396 1.353 4.456 4.913H51.72c.06 3.223 1.273 4.098 3.302 4.098 1.213 0 2.148-.358 2.884-.736v.656c-.696.756-2.188 1.79-4.158 1.79-3.422-.04-5.112-2.069-5.112-5.411zm3.083-1.154 3.362-.179c0-2.367-.318-3.242-1.492-3.242-.995 0-1.79.955-1.87 3.422zm11.677-2.646c.557-.597 1.691-1.571 3.004-1.571.836 0 1.532.676 1.532 1.532s-.677 1.532-1.532 1.532c-.617 0-1.174-.378-1.392-.915-.119-.219-.378-.279-.557-.279-.358 0-.776.259-1.034.497v6.366c0 .915.08 1.014.676 1.114l.656.139v.537h-5.669v-.537l.517-.139c.656-.179.736-.278.736-1.114v-6.107c0-.835-.099-.895-.656-1.273l-.656-.438v-.398l4.138-.477.219.159-.04 1.353.06.02zm5.132 8.415.517-.139c.657-.179.736-.278.736-1.114v-6.107c0-.835-.099-.895-.657-1.273l-.656-.438v-.398l4.137-.477.219.139-.039 1.253h.079c1.034-.736 2.327-1.392 3.759-1.392 1.671 0 2.567.855 2.567 2.626v6.047c0 .855.079.955.716 1.114l.517.139v.537h-5.471v-.537l.477-.119c.597-.159.657-.219.657-1.134v-5.271c0-1.194-.438-1.572-1.353-1.572-.697 0-1.393.159-1.83.259v6.604c0 .935.059.975.656 1.134l.477.119v.537h-5.47v-.537h-.04zm12.274-4.556c0-3.76 2.665-5.371 5.311-5.371 2.845 0 5.331 1.711 5.331 5.272 0 3.76-2.625 5.411-5.331 5.411-2.844 0-5.311-1.711-5.311-5.311zm7.34.1c0-3.959-.756-4.714-2.109-4.714-1.233 0-1.969.895-1.969 4.277 0 4.018.657 4.894 2.089 4.894 1.174 0 1.989-.696 1.989-4.456zm4.994 2.506V13.22h-1.233v-.477c1.531-.597 2.705-1.731 3.262-3.302h1.114v2.626h2.606l-.259 1.154H96.28v6.366c0 .975.299 1.373 1.273 1.373.477 0 1.054-.099 1.412-.179v.557c-.477.438-1.452 1.154-3.103 1.154-1.77 0-2.725-.776-2.725-2.705zm6.226-2.665c0-3.421 2.527-5.311 5.132-5.311 2.705 0 4.397 1.353 4.456 4.913h-6.485c.059 3.223 1.273 4.098 3.302 4.098 1.213 0 2.149-.358 2.885-.736v.656c-.697.756-2.189 1.79-4.158 1.79-3.441-.04-5.132-2.069-5.132-5.411zm3.083-1.154 3.362-.179c0-2.367-.319-3.242-1.492-3.242-.995 0-1.791.955-1.87 3.422z" style="fill:var(--color4, #000)"/>
      <path fill="#00a82d" d="M6.485 10.177c0 .239-.02.637-.259.895-.259.239-.656.259-.895.259H2.785c-.736 0-1.174 0-1.472.04-.159.02-.358.099-.458.139-.04.02-.04 0-.02-.02l5.809-5.908c.02-.02.04-.02.02.02-.04.099-.119.298-.139.458-.04.298-.04.736-.04 1.472v2.646zm5.411 17.863c-.676-.438-1.034-1.014-1.174-1.373a2.905 2.905 0 0 1-.219-1.094c0-1.651 1.353-3.004 3.024-3.004a.892.892 0 0 1 .437 1.671c-.099.06-.239.099-.338.119s-.477.06-.656.219c-.199.159-.358.418-.358.696 0 .298.119.577.318.776.358.358.835.557 1.353.557a2.445 2.445 0 0 0 2.447-2.447c0-1.213-.816-2.288-1.89-2.765-.159-.08-.418-.139-.656-.199a7.802 7.802 0 0 0-.597-.099c-.836-.099-2.924-.756-3.063-2.606 0 0-.617 2.785-1.85 3.541-.119.06-.278.119-.458.159s-.378.06-.438.06c-2.009.119-4.138-.517-5.61-2.029 0 0-.995-.816-1.512-3.103-.119-.557-.358-1.552-.497-2.487-.06-.338-.08-.597-.099-.835 0-.975.597-1.631 1.353-1.731h4.058c.696 0 1.094-.179 1.353-.418.338-.318.418-.776.418-1.313V6.138c.099-.736.756-1.353 1.731-1.353h.477c.199 0 .438.02.656.04.159.02.298.06.537.119 1.213.298 1.472 1.532 1.472 1.532s2.288.398 3.441.597c1.094.199 3.799.378 4.317 3.103 1.213 6.485.477 12.771.418 12.771-.855 6.127-5.948 5.829-5.948 5.829-1.094 0-1.91-.358-2.447-.736zm4.575-13.029c-.656-.06-1.213.199-1.412.696-.04.099-.08.219-.06.279s.06.08.099.099c.239.119.637.179 1.213.239s.975.099 1.233.06c.04 0 .08-.02.119-.08s.02-.179.02-.278c-.08-.557-.557-.935-1.213-1.015z" style="fill:var(--color5, #00a82d)"/>
    </symbol>
    <symbol id="icon-shopify" viewBox="0 0 85 32">
      <path fill="#95bf47" d="M18.1 7.923c-.017-.118-.118-.185-.202-.185s-1.753-.034-1.753-.034-1.399-1.348-1.534-1.5c-.135-.135-.405-.101-.506-.067l-.708.219a4.982 4.982 0 0 0-.337-.826c-.489-.944-1.23-1.449-2.107-1.449-.067 0-.118 0-.185.017-.034-.034-.051-.067-.084-.084a1.873 1.873 0 0 0-1.466-.59c-1.129.034-2.258.859-3.185 2.309-.64 1.028-1.129 2.309-1.281 3.303-1.298.404-2.208.691-2.241.691-.657.202-.674.219-.758.843C1.719 11.042 0 24.339 0 24.339l14.426 2.494 6.253-1.551c-.017 0-2.562-17.241-2.579-17.359zm-5.426-1.332c-.337.101-.708.219-1.112.354 0-.573-.084-1.382-.337-2.056.86.135 1.281 1.112 1.449 1.702zm-1.871.573c-.758.236-1.584.489-2.41.742.236-.893.674-1.77 1.213-2.359.202-.219.489-.455.809-.59.337.657.404 1.584.388 2.208zM9.252 4.181c.27 0 .489.051.674.185a2.992 2.992 0 0 0-.876.691c-.725.775-1.281 1.972-1.5 3.135-.691.219-1.365.421-1.972.607.404-1.837 1.938-4.567 3.674-4.618z" style="fill:var(--color6, #95bf47)"/>
      <path fill="#5e8e3e" d="M17.898 7.737c-.084 0-1.753-.034-1.753-.034s-1.399-1.348-1.534-1.5a.27.27 0 0 0-.185-.084v20.713l6.253-1.55-2.562-17.359c-.034-.118-.135-.185-.219-.185z" style="fill:var(--color7, #5e8e3e)"/>
      <path fill="#fff" d="m10.955 10.956-.725 2.713s-.809-.371-1.77-.303c-1.416.084-1.416.977-1.416 1.197.084 1.213 3.27 1.483 3.455 4.331.135 2.241-1.18 3.775-3.101 3.893-2.292.118-3.556-1.23-3.556-1.23l.489-2.073s1.281.961 2.292.893a.894.894 0 0 0 .876-.961c-.101-1.584-2.697-1.483-2.865-4.095-.135-2.191 1.298-4.399 4.466-4.601 1.23-.084 1.854.236 1.854.236z" style="fill:var(--color8, #fff)"/>
      <path d="M29.139 16.737c-.725-.388-1.095-.725-1.095-1.18 0-.573.522-.944 1.331-.944.944 0 1.786.388 1.786.388l.657-2.022s-.607-.472-2.393-.472c-2.494 0-4.23 1.433-4.23 3.438 0 1.146.809 2.006 1.888 2.629.876.489 1.18.843 1.18 1.365 0 .539-.438.977-1.247.977-1.197 0-2.343-.624-2.343-.624l-.708 2.022s1.045.708 2.815.708c2.562 0 4.416-1.264 4.416-3.539-.017-1.23-.944-2.107-2.056-2.747zm10.214-4.264c-1.264 0-2.258.607-3.017 1.517l-.034-.017 1.095-5.73h-2.848l-2.781 14.595h2.848l.944-4.989c.371-1.888 1.348-3.05 2.258-3.05.64 0 .893.438.893 1.062 0 .388-.034.876-.118 1.264l-1.079 5.713h2.848l1.112-5.899c.118-.624.202-1.365.202-1.871.017-1.618-.826-2.595-2.326-2.595zm8.797 0c-3.438 0-5.713 3.101-5.713 6.556 0 2.208 1.365 3.994 3.927 3.994 3.371 0 5.646-3.017 5.646-6.556.017-2.039-1.18-3.994-3.859-3.994zm-1.399 8.376c-.977 0-1.382-.826-1.382-1.871 0-1.635.843-4.298 2.393-4.298 1.011 0 1.348.876 1.348 1.719 0 1.753-.86 4.449-2.359 4.449zm12.573-8.376c-1.921 0-3.017 1.702-3.017 1.702h-.034l.169-1.534h-2.528a63.489 63.489 0 0 1-.573 3.792l-1.989 10.449H54.2l.792-4.23h.067s.59.371 1.668.371c3.354 0 5.545-3.438 5.545-6.91 0-1.921-.86-3.64-2.949-3.64zm-2.73 8.41c-.742 0-1.18-.421-1.18-.421l.472-2.663c.337-1.786 1.264-2.966 2.258-2.966.876 0 1.146.809 1.146 1.567 0 1.854-1.095 4.483-2.697 4.483zm9.757-12.505a1.63 1.63 0 0 0-1.635 1.652c0 .843.539 1.432 1.348 1.432h.034c.893 0 1.652-.607 1.668-1.652 0-.826-.556-1.433-1.416-1.433zm-3.994 14.443h2.848l1.938-10.112h-2.865l-1.921 10.112zm12.05-10.129h-1.989l.101-.472c.169-.977.741-1.837 1.702-1.837.506 0 .91.152.91.152l.557-2.242s-.489-.253-1.551-.253c-1.011 0-2.023.287-2.798.944-.977.826-1.432 2.022-1.651 3.236l-.084.472h-1.331l-.421 2.157h1.331l-1.517 7.988h2.849l1.517-7.988h1.972l.404-2.157zm6.876.017s-1.786 4.5-2.578 6.96h-.034c-.051-.792-.708-6.96-.708-6.96h-3l1.719 9.286c.034.202.017.337-.067.472-.337.64-.893 1.264-1.551 1.719-.539.388-1.146.64-1.618.809l.792 2.427c.573-.118 1.787-.607 2.798-1.55 1.297-1.213 2.511-3.101 3.741-5.663l3.489-7.5h-2.983z" style="fill:var(--color4, #000)"/>
    </symbol>
    <symbol id="icon-uber" viewBox="0 0 48 32">
      <path d="M2.762 19.236c.203.538.484.999.843 1.381s.784.675 1.276.878a4.16 4.16 0 0 0 1.603.304c.562 0 1.088-.105 1.58-.316s.921-.507 1.287-.889c.367-.382.652-.839.854-1.369s.304-1.124.304-1.779V7.334h2.458V23.72h-2.434v-1.522c-.546.577-1.19 1.022-1.931 1.334S7.061 24 6.203 24c-.874 0-1.689-.152-2.446-.456s-1.412-.737-1.966-1.299C1.237 21.683.8 21.008.48 20.22S0 18.554 0 17.587V7.334h2.458v10.112c0 .655.101 1.252.304 1.791zM17.205 7.333v5.969c.546-.546 1.178-.979 1.896-1.299s1.498-.48 2.341-.48c.874 0 1.693.164 2.458.492s1.428.772 1.99 1.334 1.007 1.225 1.334 1.99.492 1.576.492 2.434-.164 1.666-.492 2.423c-.328.757-.772 1.416-1.334 1.978s-1.225 1.007-1.99 1.334-1.584.492-2.458.492c-.843 0-1.627-.16-2.352-.48s-1.362-.753-1.908-1.299v1.498h-2.341V7.333h2.364zm.269 12.056c.211.499.503.936.878 1.311s.812.671 1.311.89a3.992 3.992 0 0 0 1.615.328c.562 0 1.092-.109 1.592-.328s.932-.515 1.299-.89c.367-.374.659-.811.878-1.311s.328-1.038.328-1.615-.109-1.12-.328-1.627-.511-.948-.878-1.323-.8-.667-1.299-.878-1.03-.316-1.592-.316-1.092.105-1.592.316-.936.503-1.311.878-.671.815-.89 1.323c-.218.507-.328 1.049-.328 1.627s.105 1.116.316 1.615zm11.575-4.027c.312-.749.741-1.408 1.287-1.978s1.194-1.018 1.943-1.346a6.003 6.003 0 0 1 2.434-.492c.858 0 1.654.156 2.388.468s1.365.745 1.896 1.299c.531.554.944 1.209 1.241 1.966s.445 1.58.445 2.47v.772h-9.714a4.063 4.063 0 0 0 1.346 2.423c.351.305.749.542 1.194.714.445.172.917.258 1.416.258 1.42 0 2.567-.585 3.441-1.756l1.709 1.264c-.593.796-1.326 1.42-2.2 1.873s-1.857.679-2.949.679c-.89 0-1.72-.156-2.493-.468s-1.444-.749-2.013-1.311c-.57-.562-1.018-1.221-1.346-1.978s-.492-1.58-.492-2.47c0-.843.156-1.639.468-2.388zm3.289-.924c-.663.554-1.104 1.291-1.323 2.212h7.28c-.203-.921-.636-1.658-1.299-2.212s-1.44-.831-2.329-.831-1.666.277-2.329.831zm12.769.269c-.499.546-.749 1.287-.749 2.224v6.788h-2.364V11.781h2.341v1.475c.297-.484.683-.866 1.159-1.147s1.042-.421 1.697-.421h.819v2.2h-.983c-.78 0-1.42.273-1.919.819z"/>
    </symbol>
    <symbol id="icon-microsoft" viewBox="0 0 109 32">
      <path fill="#706d6e" d="M109.239 14.556v-1.921h-2.386V9.648l-.08.025-2.285.699v2.263h-3.537v-1.261c0-.587.131-1.036.39-1.336.257-.296.625-.446 1.093-.446.337 0 .686.079 1.037.236l.088.039V7.844l-.041-.015c-.328-.118-.773-.177-1.325-.177-.696 0-1.328.151-1.879.452s-.986.73-1.29 1.275c-.303.545-.457 1.174-.457 1.871v1.386h-1.661v1.921h1.661v8.093h2.385v-8.093h3.537V19.7c0 2.118.999 3.192 2.97 3.192.323 0 .665-.038 1.012-.112.355-.076.596-.152.738-.234l.031-.019v-1.939l-.097.064a1.667 1.667 0 0 1-.479.209c-.19.053-.348.08-.471.08-.461 0-.803-.124-1.015-.37-.215-.248-.323-.681-.323-1.287v-4.728h2.386zm-17.66 6.385c-.865 0-1.548-.287-2.029-.852-.484-.568-.729-1.378-.729-2.408 0-1.062.245-1.893.729-2.471.481-.574 1.157-.866 2.009-.866.827 0 1.485.278 1.957.828.474.552.714 1.377.714 2.451 0 1.087-.226 1.923-.672 2.482-.443.555-1.109.836-1.979.836zm.106-8.547c-1.651 0-2.963.484-3.898 1.438s-1.409 2.275-1.409 3.926c0 1.568.463 2.829 1.375 3.748s2.154 1.385 3.69 1.385c1.601 0 2.886-.491 3.821-1.458.935-.966 1.409-2.275 1.409-3.887 0-1.592-.445-2.863-1.321-3.776s-2.111-1.376-3.667-1.376zm-9.151 0c-1.123 0-2.053.287-2.762.854-.715.57-1.077 1.317-1.077 2.222 0 .47.078.888.232 1.242.155.355.395.668.713.931.316.26.803.533 1.449.811.543.224.949.413 1.206.562.251.146.43.293.531.436.098.14.147.331.147.568 0 .673-.504 1-1.541 1-.385 0-.823-.08-1.303-.239a4.898 4.898 0 0 1-1.335-.677l-.099-.071v2.296l.036.017c.337.156.763.287 1.265.39.5.103.955.156 1.35.156 1.219 0 2.201-.289 2.917-.859.721-.574 1.086-1.339 1.086-2.275 0-.675-.197-1.254-.584-1.721-.385-.463-1.053-.888-1.985-1.264-.743-.298-1.218-.545-1.414-.735-.189-.183-.285-.443-.285-.771 0-.291.119-.525.362-.713.245-.19.587-.286 1.015-.286.397 0 .804.063 1.208.186s.759.288 1.055.489l.097.067v-2.178l-.037-.016a5.259 5.259 0 0 0-1.071-.299 6.533 6.533 0 0 0-1.175-.122zm-10.055 8.547c-.865 0-1.548-.287-2.029-.852-.484-.568-.729-1.378-.729-2.408 0-1.062.245-1.893.729-2.471.481-.574 1.157-.866 2.009-.866.827 0 1.485.278 1.957.828.474.552.714 1.377.714 2.451 0 1.087-.226 1.923-.672 2.482-.443.555-1.109.836-1.979.836zm.106-8.547c-1.651 0-2.963.484-3.898 1.438s-1.409 2.275-1.409 3.926c0 1.569.463 2.829 1.375 3.748s2.154 1.385 3.69 1.385c1.601 0 2.886-.491 3.821-1.458.934-.966 1.408-2.275 1.408-3.887 0-1.592-.445-2.863-1.321-3.776s-2.111-1.376-3.667-1.376zm-8.927 1.975v-1.734h-2.356v10.014h2.356v-5.123c0-.871.198-1.587.587-2.127.385-.534.897-.805 1.523-.805.212 0 .45.035.708.104.256.069.44.144.55.222l.099.072v-2.375l-.038-.016c-.219-.093-.53-.14-.923-.14-.592 0-1.122.19-1.575.565-.398.329-.686.78-.906 1.343h-.025zm-6.574-1.975c-1.081 0-2.045.232-2.865.689a4.637 4.637 0 0 0-1.889 1.943c-.43.829-.649 1.798-.649 2.878 0 .946.212 1.815.631 2.58a4.428 4.428 0 0 0 1.763 1.782c.75.415 1.616.626 2.575.626 1.119 0 2.075-.224 2.842-.665l.031-.018v-2.158l-.099.072a4.413 4.413 0 0 1-1.152.6c-.416.145-.796.219-1.129.219-.924 0-1.666-.289-2.205-.859-.54-.571-.813-1.373-.813-2.382 0-1.015.285-1.838.848-2.444.561-.605 1.304-.912 2.209-.912.774 0 1.529.262 2.243.78l.099.072v-2.274l-.032-.018c-.269-.15-.635-.275-1.09-.369a6.507 6.507 0 0 0-1.317-.141zm-7.025.241h-2.356v10.014h2.356V12.635zm-1.154-4.266c-.388 0-.726.132-1.004.394-.279.262-.42.592-.42.982 0 .384.14.708.416.963.275.255.614.384 1.008.384s.735-.129 1.013-.383c.28-.256.421-.58.421-.964 0-.376-.138-.703-.41-.972s-.616-.404-1.024-.404zm-5.878 3.527v10.753h2.404V8.675h-3.327l-4.229 10.379-4.104-10.379h-3.463v13.974h2.259V11.895h.078l4.334 10.754h1.705l4.266-10.753h.078z" style="fill:var(--color9, #706d6e)"/>
      <path fill="#f1511b" d="M11.082 15.088H0V4.006h11.082v11.082z" style="fill:var(--color10, #f1511b)"/>
      <path fill="#80cc28" d="M23.317 15.088H12.236V4.006h11.081v11.082z" style="fill:var(--color11, #80cc28)"/>
      <path fill="#00adef" d="M11.081 27.327H0V16.245h11.081v11.082z" style="fill:var(--color12, #00adef)"/>
      <path fill="#fbbc09" d="M23.317 27.327H12.236V16.245h11.081v11.082z" style="fill:var(--color13, #fbbc09)"/>
    </symbol>
    <symbol id="icon-google" viewBox="0 0 75 32">
      <path fill="#ea4335" d="M32.158 17.1c0 3.549-2.776 6.164-6.183 6.164s-6.183-2.615-6.183-6.164c0-3.574 2.776-6.164 6.183-6.164s6.183 2.59 6.183 6.164zm-2.706 0c0-2.218-1.609-3.735-3.477-3.735s-3.477 1.517-3.477 3.735c0 2.195 1.609 3.735 3.477 3.735s3.477-1.542 3.477-3.735z" style="fill:var(--color14, #ea4335)"/>
      <path fill="#fbbc05" d="M45.498 17.1c0 3.549-2.776 6.164-6.183 6.164s-6.183-2.615-6.183-6.164c0-3.571 2.776-6.164 6.183-6.164s6.183 2.59 6.183 6.164zm-2.707 0c0-2.218-1.609-3.735-3.477-3.735s-3.477 1.517-3.477 3.735c0 2.195 1.609 3.735 3.477 3.735s3.477-1.542 3.477-3.735z" style="fill:var(--color15, #fbbc05)"/>
      <path fill="#4285f4" d="M58.282 11.309v11.066c0 4.552-2.685 6.411-5.858 6.411-2.987 0-4.785-1.998-5.464-3.632l2.357-.981c.42 1.003 1.448 2.187 3.104 2.187 2.031 0 3.29-1.253 3.29-3.613v-.886h-.094c-.606.748-1.773 1.401-3.246 1.401-3.082 0-5.905-2.685-5.905-6.139 0-3.479 2.823-6.186 5.905-6.186 1.47 0 2.637.653 3.246 1.378h.094v-1.003h2.571v-.003zm-2.379 5.813c0-2.17-1.448-3.757-3.29-3.757-1.868 0-3.432 1.587-3.432 3.757 0 2.148 1.565 3.713 3.432 3.713 1.842 0 3.29-1.565 3.29-3.713z" style="fill:var(--color16, #4285f4)"/>
      <path fill="#34a853" d="M62.519 4.822v18.064h-2.64V4.822h2.64z" style="fill:var(--color17, #34a853)"/>
      <path fill="#ea4335" d="m72.807 19.129 2.101 1.401c-.678 1.003-2.312 2.732-5.136 2.732-3.501 0-6.116-2.707-6.116-6.164 0-3.666 2.637-6.164 5.814-6.164 3.199 0 4.763 2.546 5.275 3.921l.281.7-8.24 3.413c.631 1.237 1.612 1.868 2.987 1.868 1.379 0 2.335-.678 3.035-1.706zm-6.466-2.218 5.508-2.287c-.303-.77-1.214-1.306-2.287-1.306-1.376 0-3.291 1.214-3.221 3.593z" style="fill:var(--color14, #ea4335)"/>
      <path fill="#4285f4" d="M9.798 15.496v-2.615h8.812c.086.456.131.995.131 1.579 0 1.962-.536 4.388-2.265 6.117-1.681 1.751-3.83 2.685-6.675 2.685-5.275 0-9.71-4.296-9.71-9.571S4.526 4.12 9.801 4.12c2.918 0 4.997 1.145 6.559 2.637l-1.845 1.845c-1.12-1.05-2.637-1.868-4.716-1.868-3.852 0-6.864 3.104-6.864 6.956s3.012 6.956 6.864 6.956c2.498 0 3.921-1.003 4.833-1.915.739-.739 1.226-1.795 1.417-3.238l-6.25.003z" style="fill:var(--color16, #4285f4)"/>
    </symbol>
    <symbol id="icon-paypal" viewBox="0 0 96 32">
      <path fill="#253b80" d="M35.808 8.514h-5.25a.73.73 0 0 0-.721.616l-2.123 13.463a.437.437 0 0 0 .433.505h2.506a.73.73 0 0 0 .721-.616l.573-3.631a.729.729 0 0 1 .72-.616h1.662c3.458 0 5.454-1.674 5.976-4.99.235-1.451.01-2.591-.669-3.389-.746-.877-2.07-1.34-3.827-1.34zm.606 4.917c-.287 1.884-1.726 1.884-3.118 1.884h-.792l.556-3.518a.437.437 0 0 1 .432-.369h.363c.948 0 1.842 0 2.305.54.276.322.36.801.255 1.463zm15.088-.06h-2.514a.438.438 0 0 0-.432.369l-.111.703-.176-.255c-.544-.79-1.758-1.054-2.969-1.054-2.778 0-5.151 2.104-5.613 5.056-.24 1.472.101 2.88.937 3.862.766.903 1.862 1.279 3.167 1.279 2.239 0 3.48-1.439 3.48-1.439l-.112.699a.438.438 0 0 0 .431.507h2.265a.73.73 0 0 0 .721-.616l1.359-8.605a.436.436 0 0 0-.431-.505zm-3.504 4.893c-.243 1.436-1.383 2.401-2.837 2.401-.73 0-1.314-.234-1.688-.678-.372-.441-.513-1.068-.395-1.766.226-1.424 1.386-2.42 2.817-2.42.714 0 1.294.237 1.677.685.383.452.535 1.083.425 1.779zm16.894-4.893h-2.526a.733.733 0 0 0-.604.32l-3.484 5.133-1.477-4.932a.732.732 0 0 0-.7-.521h-2.483a.438.438 0 0 0-.415.579l2.783 8.167-2.616 3.693a.438.438 0 0 0 .357.691h2.523a.731.731 0 0 0 .6-.313l8.403-12.129a.437.437 0 0 0-.359-.687z" style="fill:var(--color18, #253b80)"/>
      <path fill="#179bd7" d="M73.257 8.514h-5.251a.73.73 0 0 0-.72.616l-2.123 13.463a.437.437 0 0 0 .431.505h2.694c.25 0 .465-.183.504-.431l.602-3.816a.729.729 0 0 1 .721-.616h1.661c3.459 0 5.455-1.674 5.977-4.99.235-1.451.009-2.591-.67-3.389-.745-.877-2.068-1.34-3.825-1.34zm.605 4.917c-.286 1.884-1.725 1.884-3.118 1.884h-.791l.556-3.518a.436.436 0 0 1 .432-.369h.363c.947 0 1.843 0 2.305.54.275.322.359.801.254 1.463zm15.087-.06h-2.513a.436.436 0 0 0-.431.369l-.111.703-.177-.255c-.544-.79-1.757-1.054-2.969-1.054-2.778 0-5.15 2.104-5.612 5.056-.24 1.472.1 2.88.935 3.862.768.903 1.863 1.279 3.167 1.279 2.239 0 3.48-1.439 3.48-1.439l-.112.699a.438.438 0 0 0 .433.507h2.264a.729.729 0 0 0 .72-.616l1.36-8.605a.439.439 0 0 0-.434-.505zm-3.504 4.893c-.241 1.436-1.382 2.401-2.836 2.401-.729 0-1.314-.234-1.689-.678-.371-.441-.511-1.068-.395-1.766.228-1.424 1.386-2.42 2.818-2.42.713 0 1.294.237 1.676.685.385.452.537 1.083.425 1.779zm6.468-9.38-2.155 13.709a.436.436 0 0 0 .431.505h2.166c.36 0 .666-.261.721-.616L95.201 9.02a.437.437 0 0 0-.431-.506h-2.426a.437.437 0 0 0-.431.37z" style="fill:var(--color19, #179bd7)"/>
      <path fill="#253b80" d="m5.911 25.714.402-2.55-.894-.021H1.148L4.116 4.325a.243.243 0 0 1 .241-.205h7.201c2.391 0 4.04.497 4.902 1.479.404.461.661.942.785 1.472.131.556.133 1.22.005 2.03l-.009.059v.519l.404.229c.34.18.61.387.818.623.345.394.569.894.663 1.488.097.61.065 1.337-.094 2.159-.184.946-.482 1.769-.884 2.444a5.018 5.018 0 0 1-1.401 1.535 5.678 5.678 0 0 1-1.887.851c-.695.181-1.488.273-2.358.273h-.56c-.401 0-.79.144-1.095.403a1.697 1.697 0 0 0-.571 1.019l-.042.23-.709 4.495-.032.165c-.008.052-.023.078-.044.096a.12.12 0 0 1-.074.027h-3.46z" style="fill:var(--color18, #253b80)"/>
      <path fill="#179bd7" d="M18.027 9.219a10.76 10.76 0 0 1-.074.422c-.95 4.876-4.198 6.56-8.348 6.56H7.492c-.507 0-.935.369-1.014.869l-1.082 6.86-.306 1.945a.54.54 0 0 0 .534.625h3.747a.902.902 0 0 0 .891-.76l.037-.19.706-4.477.045-.246a.902.902 0 0 1 .891-.762h.56c3.63 0 6.472-1.474 7.303-5.739.347-1.782.167-3.27-.751-4.316a3.589 3.589 0 0 0-1.026-.791z" style="fill:var(--color19, #179bd7)"/>
      <path fill="#222d65" d="M17.033 8.823a7.324 7.324 0 0 0-.923-.205 11.751 11.751 0 0 0-1.862-.136H8.604a.898.898 0 0 0-.889.761l-1.201 7.605-.035.222a1.026 1.026 0 0 1 1.014-.869h2.113c4.149 0 7.398-1.685 8.348-6.56.028-.144.052-.285.074-.422a5.115 5.115 0 0 0-.994-.396z" style="fill:var(--color20, #222d65)"/>
      <path fill="#253b80" d="M7.714 9.244a.896.896 0 0 1 .889-.76h5.644c.669 0 1.293.044 1.862.136a7.142 7.142 0 0 1 1.136.271c.28.093.54.203.781.329.282-1.802-.002-3.029-.977-4.139-1.074-1.223-3.012-1.746-5.493-1.746H4.355c-.507 0-.939.369-1.017.87L.339 23.217a.62.62 0 0 0 .61.716h4.446l1.116-7.082 1.201-7.605z" style="fill:var(--color18, #253b80)"/>
    </symbol>
    <symbol id="icon-amazon" viewBox="0 0 74 32">
      <path fill="#f90" d="M45.457 25.205C41.215 28.332 35.066 30 29.771 30c-7.423 0-14.106-2.746-19.162-7.312-.397-.359-.041-.848.435-.569 5.456 3.175 12.203 5.084 19.172 5.084 4.7 0 9.87-.972 14.624-2.99.718-.305 1.319.47.616.992z" style="fill:var(--color21, #f90)"/>
      <path fill="#f90" d="M47.22 23.187c-.54-.693-3.585-.327-4.951-.165-.416.051-.48-.311-.105-.572 2.425-1.706 6.403-1.214 6.867-.642.464.575-.121 4.563-2.399 6.467-.35.292-.683.137-.528-.251.512-1.278 1.659-4.141 1.115-4.837z" style="fill:var(--color21, #f90)"/>
      <path d="M42.365 10.402V8.743c0-.251.191-.419.419-.419h7.427c.238 0 .429.172.429.419v1.42c-.003.238-.203.55-.559 1.042l-3.848 5.494c1.43-.035 2.939.178 4.236.909.292.165.372.407.394.645v1.77c0 .241-.267.524-.547.378-2.285-1.198-5.32-1.328-7.846.013-.257.14-.528-.14-.528-.381v-1.681c0-.27.003-.731.273-1.141l4.458-6.394h-3.88c-.238 0-.429-.168-.429-.416zM15.274 20.753h-2.259a.428.428 0 0 1-.404-.385V8.772c0-.232.194-.416.435-.416h2.107c.219.01.394.178.41.388v1.516h.041c.55-1.465 1.583-2.148 2.974-2.148 1.414 0 2.298.683 2.933 2.148.547-1.465 1.789-2.148 3.121-2.148.947 0 1.983.391 2.615 1.268.715.976.569 2.393.569 3.635l-.003 7.319a.426.426 0 0 1-.435.419h-2.256a.43.43 0 0 1-.407-.419v-6.146c0-.489.045-1.71-.064-2.174-.168-.779-.674-.998-1.328-.998-.547 0-1.119.365-1.351.95s-.21 1.563-.21 2.221v6.146a.426.426 0 0 1-.435.419h-2.256a.427.427 0 0 1-.407-.419l-.003-6.146c0-1.293.213-3.197-1.392-3.197-1.624 0-1.56 1.856-1.56 3.197v6.146a.426.426 0 0 1-.435.419zm41.76-12.642c3.353 0 5.167 2.879 5.167 6.54 0 3.537-2.005 6.343-5.167 6.343-3.292 0-5.084-2.879-5.084-6.467 0-3.61 1.815-6.416 5.084-6.416zm.019 2.368c-1.665 0-1.77 2.269-1.77 3.683 0 1.417-.022 4.443 1.751 4.443 1.751 0 1.834-2.441 1.834-3.928 0-.979-.041-2.148-.337-3.076-.254-.807-.759-1.122-1.478-1.122zm9.495 10.274h-2.25a.43.43 0 0 1-.407-.419l-.003-11.599a.427.427 0 0 1 .435-.378h2.094c.197.01.359.143.404.324v1.773h.041c.632-1.586 1.519-2.342 3.079-2.342 1.013 0 2.002.365 2.637 1.366.591.928.591 2.488.591 3.61v7.299a.434.434 0 0 1-.435.365h-2.266a.427.427 0 0 1-.4-.365v-6.298c0-1.268.146-3.124-1.415-3.124-.549 0-1.055.369-1.306.928-.317.709-.359 1.414-.359 2.196v6.244a.434.434 0 0 1-.442.419zm-30.103-5.539v-.489c-1.637 0-3.362.35-3.362 2.275 0 .976.508 1.637 1.376 1.637.632 0 1.204-.391 1.564-1.026.445-.782.423-1.516.423-2.396zm2.278 5.507a.473.473 0 0 1-.534.054c-.75-.623-.887-.912-1.297-1.506-1.239 1.265-2.12 1.643-3.724 1.643-1.903 0-3.381-1.173-3.381-3.521 0-1.834.991-3.083 2.409-3.693 1.227-.54 2.939-.636 4.249-.785v-.292c0-.537.041-1.173-.276-1.637-.273-.416-.801-.588-1.268-.588-.861 0-1.627.442-1.815 1.357-.038.203-.187.404-.394.413l-2.189-.235c-.184-.041-.391-.191-.337-.473.502-2.657 2.905-3.457 5.053-3.457 1.1 0 2.536.292 3.403 1.125 1.1 1.026.995 2.396.995 3.886v3.521c0 1.058.439 1.522.852 2.094.143.203.175.448-.01.601-.461.385-1.281 1.1-1.732 1.5l-.003-.006zM6.824 15.214v-.489c-1.633 0-3.359.35-3.359 2.275 0 .976.505 1.637 1.373 1.637.636 0 1.204-.391 1.563-1.026.445-.782.423-1.516.423-2.396zm2.279 5.507a.473.473 0 0 1-.534.054c-.75-.623-.883-.912-1.297-1.506-1.239 1.265-2.116 1.643-3.724 1.643-1.9 0-3.381-1.173-3.381-3.521 0-1.834.995-3.082 2.409-3.693 1.227-.54 2.939-.636 4.249-.785v-.292c0-.537.041-1.173-.273-1.637-.276-.416-.804-.588-1.268-.588-.861 0-1.63.442-1.818 1.357-.038.203-.188.404-.391.413l-2.193-.235c-.184-.041-.388-.191-.337-.473.505-2.657 2.905-3.457 5.053-3.457 1.1 0 2.536.292 3.403 1.125 1.099 1.026.995 2.396.995 3.886v3.521c0 1.058.439 1.522.852 2.094.146.203.178.448-.006.601-.461.385-1.281 1.1-1.732 1.5l-.006-.006z" style="fill:var(--color4, #000)"/>
    </symbol>
    <symbol id="icon-spotify" viewBox="0 0 93 32">
      <path fill="#1ed760" d="M14.048 2.053c-7.732 0-14 6.268-14 14s6.268 14 14 14c7.733 0 14-6.268 14-14S21.78 2.054 14.047 2.054v-.001zm6.421 20.192a.872.872 0 0 1-1.2.289c-3.287-2.008-7.425-2.463-12.299-1.349a.873.873 0 0 1-.389-1.702c5.333-1.218 9.908-.694 13.598 1.561a.872.872 0 0 1 .289 1.2zm1.713-3.812a1.091 1.091 0 0 1-1.501.36c-3.763-2.313-9.5-2.983-13.951-1.632a1.093 1.093 0 0 1-1.362-.727 1.093 1.093 0 0 1 .728-1.361c5.085-1.543 11.405-.795 15.727 1.86.513.316.675.988.359 1.501zm.148-3.97c-4.512-2.68-11.957-2.927-16.265-1.619a1.31 1.31 0 1 1-.76-2.507c4.945-1.501 13.167-1.211 18.362 1.873a1.31 1.31 0 0 1-1.336 2.252h-.001zm15.808.514c-2.417-.576-2.847-.981-2.847-1.831 0-.803.756-1.344 1.881-1.344 1.09 0 2.17.41 3.304 1.255a.153.153 0 0 0 .119.029.155.155 0 0 0 .105-.065l1.18-1.664a.158.158 0 0 0-.03-.215c-1.349-1.082-2.867-1.608-4.643-1.608-2.61 0-4.434 1.566-4.434 3.807 0 2.403 1.573 3.254 4.292 3.911 2.312.533 2.703.979 2.703 1.777 0 .884-.789 1.434-2.06 1.434-1.411 0-2.563-.476-3.85-1.59a.164.164 0 0 0-.115-.038.156.156 0 0 0-.109.055l-1.324 1.575a.16.16 0 0 0 .015.221c1.498 1.337 3.34 2.043 5.33 2.043 2.812 0 4.629-1.536 4.629-3.915.005-2.007-1.197-3.119-4.141-3.835l-.005-.002zm10.509-2.384c-1.219 0-2.219.48-3.044 1.464V12.95a.158.158 0 0 0-.157-.159h-2.165a.158.158 0 0 0-.157.159v12.305c0 .087.07.159.157.159h2.165a.158.158 0 0 0 .157-.159v-3.884c.826.924 1.826 1.378 3.044 1.378 2.265 0 4.559-1.744 4.559-5.077.003-3.334-2.29-5.078-4.557-5.078h-.002zm2.042 5.078c0 1.697-1.045 2.882-2.543 2.882-1.48 0-2.596-1.239-2.596-2.882s1.117-2.882 2.596-2.882c1.473 0 2.543 1.212 2.543 2.882zm8.394-5.078c-2.917 0-5.203 2.246-5.203 5.114 0 2.837 2.27 5.059 5.168 5.059 2.927 0 5.219-2.239 5.219-5.096 0-2.847-2.277-5.078-5.184-5.078zm0 7.977c-1.551 0-2.722-1.247-2.722-2.9 0-1.66 1.13-2.864 2.687-2.864 1.561 0 2.738 1.247 2.738 2.901 0 1.66-1.137 2.863-2.703 2.863zm11.413-7.779h-2.382v-2.435a.158.158 0 0 0-.157-.158h-2.165a.16.16 0 0 0-.159.158v2.435h-1.04a.158.158 0 0 0-.157.159v1.86c0 .087.07.159.157.159h1.04v4.814c0 1.944.968 2.931 2.879 2.931.775 0 1.419-.161 2.026-.505.05-.027.08-.08.08-.137V20.3a.159.159 0 0 0-.075-.134.153.153 0 0 0-.153-.007 2.734 2.734 0 0 1-1.271.306c-.694 0-1.005-.316-1.005-1.021V14.97h2.382a.158.158 0 0 0 .157-.159v-1.86a.154.154 0 0 0-.155-.159l-.002-.001zm8.299.009v-.299c0-.88.337-1.272 1.093-1.272.451 0 .814.09 1.22.225a.157.157 0 0 0 .207-.151V9.479a.156.156 0 0 0-.112-.152 5.917 5.917 0 0 0-1.799-.258c-1.998 0-3.056 1.126-3.056 3.255v.458h-1.04a.16.16 0 0 0-.159.159v1.87a.16.16 0 0 0 .159.159h1.04v7.424c0 .089.072.159.159.159h2.163c.089 0 .159-.07.159-.159v-7.423h2.021l3.096 7.423c-.351.779-.697.935-1.169.935-.381 0-.784-.114-1.193-.339a.176.176 0 0 0-.125-.012.158.158 0 0 0-.094.085l-.733 1.61a.159.159 0 0 0 .068.206c.766.415 1.457.592 2.311.592 1.598 0 2.483-.746 3.26-2.748l3.755-9.703a.152.152 0 0 0-.017-.147.154.154 0 0 0-.129-.069h-2.253a.16.16 0 0 0-.151.106l-2.309 6.593-2.528-6.597a.158.158 0 0 0-.147-.102h-3.698zm-4.812-.009h-2.165a.16.16 0 0 0-.159.159v9.443c0 .089.071.159.159.159h2.165c.087 0 .159-.07.159-.159v-9.442a.16.16 0 0 0-.159-.159v-.001zm-1.07-4.3a1.552 1.552 0 1 0-.001 3.105 1.552 1.552 0 0 0 .001-3.105zm18.962 7.336c-.856 0-1.523-.688-1.523-1.523s.676-1.531 1.532-1.531c.855 0 1.523.688 1.523 1.523s-.675 1.532-1.531 1.532zm.009-2.903c-.781 0-1.371.62-1.371 1.38s.587 1.371 1.363 1.371c.781 0 1.371-.62 1.371-1.38s-.587-1.371-1.362-1.371zm.337 1.528.431.603h-.365l-.387-.553h-.333v.553h-.305v-1.599h.712c.373 0 .617.19.617.51.001.262-.151.422-.369.486h-.002zm-.257-.722h-.396v.506h.396c.197 0 .316-.097.316-.253 0-.165-.119-.253-.316-.253z" style="fill:var(--color22, #1ed760)"/>
    </symbol>
  </defs>
</svg>
